<svg xmlns="http://www.w3.org/2000/svg" viewBox="0 0 373.9 163.89">
	<g class="patty">
		<path class="patty__burger" d="M24.58,67H348.21A21.39,21.39,0,0,1,369.6,88.37v16.44a20,20,0,0,1-20,20h-325a20,20,0,0,1-20-20V87a20,20,0,0,1,20-20Z" fill="#633a1d" />
	</g>
	<g class="cheese">
		<path class="chesse__drips	" d="M449.2,147H117.48a13.26,13.26,0,0,0-6.07,1.5l-.42.22-.67.41a19.22,19.22,0,0,0-7.43,9.74l0,.29a24.56,24.56,0,0,0-1.49,8.44l0,15.23c0,.78,0,1.54.12,2.3a7,7,0,0,0,5.63,3.07h0c4.27,0,7.75-4.37,7.76-9.75v-3.78c0-2.82,1.83-5.11,4.07-5.11l7.31,0c1.74,0,3.15,1.76,3.14,3.95v1c0,5.38,3.46,9.73,7.74,9.72h0l.36,0c1.1,4.35,4.56,7.36,8.5,6.66s6.63-5.06,6.64-10l0-11.43h0l17.43,0v1.31c0,4.87,2.74,9.23,6.58,9.91,4.79.86,8.91-3.8,8.92-9.65v-1.61h0l22.28-.05h0l0,11.74c0,5.37,3.45,9.72,7.73,9.71s7.76-4.37,7.77-9.75V170.64a1.46,1.46,0,0,1,1.28-1.59l30.77.14a1.46,1.46,0,0,1,1.27,1.6v6.77c0,5.37,3.46,9.72,7.74,9.71l.28,0c1.28,3.13,3.88,5.27,6.88,5.27h0c3.61,0,6.64-3.13,7.51-7.34l.25,0c4.28,0,7.75-4.38,7.76-9.75l.15-4.78a1.46,1.46,0,0,1,1.28-1.55l16.12-.1a.76.76,0,0,1,.86.69h0v7.11c0,4.88,2.74,9.23,6.59,9.92,4.79.85,8.9-3.81,8.91-9.66v-6.54a1.38,1.38,0,0,1,1.2-1.5l8.46,0h.17a1.46,1.46,0,0,1,1.34,1.22c1.15,4.65,3,7.89,6.83,7.88s6.78-3.25,7.56-7.59a1.77,1.77,0,0,1,1.6-1.56l19.62,0s0,.12.14.36a12.49,12.49,0,0,1,.68,2.74l.24,2.68c0,4.49,2.31,8.61,5.77,9.72a6.16,6.16,0,0,0,4.18-.1h0c1.21,4.19,4.63,7,8.5,6.28s6.53-5.08,6.53-9.92l0-10.21a1.49,1.49,0,0,1,1.28-1.62l13.37,0a1.56,1.56,0,0,1,1.36,1.71v6c0,5.18,3.1,9.7,7.22,10,4.51.36,8.27-4.14,8.28-9.73v-6.77a2.06,2.06,0,0,1,1.77-1.25l23.74-.23v6.16c0,4.88,2.74,9.24,6.59,9.92,4.78.86,8.9-3.8,8.91-9.65v-6.46C466.37,156.62,458.68,147,449.2,147Z" transform="translate(-96.81 -79.97)" fill="#e8ae00" />
	</g>
	<g class="ketchup">
		<rect class="ketchup__drip" x="38.02" y="69.32" width="10.75" height="27.03" rx="5.37" fill="#b82814" />
		<rect class="ketchup__drip" data-name="ketchup__drip" x="84.15" y="65.91" width="10.75" height="25.67" rx="5.37" fill="#b82814" />
		<rect class="ketchup__drip" data-name="ketchup__drip" x="131.29" y="74.1" width="10.23" height="17.48" rx="5.12" fill="#b82814" />
		<rect class="ketchup__drip" data-name="ketchup__drip" x="124.54" y="69.11" width="10.23" height="26.1" rx="5.12" fill="#b82814" />
		<rect class="ketchup__drip" data-name="ketchup__drip" x="168.17" y="69.11" width="10.23" height="24.93" rx="5.12" fill="#b82814" />
		<rect class="ketchup__drip" data-name="ketchup__drip" x="236.04" y="69.11" width="10.23" height="19.98" rx="5.12" fill="#b82814" />
		<rect class="ketchup__drip" data-name="ketchup__drip" x="215.48" y="77.75" width="10.23" height="18.59" rx="5.12" fill="#b82814" />
		<rect class="ketchup__drip" data-name="ketchup__drip" x="277.84" y="66.93" width="10.23" height="29.3" rx="5.12" fill="#b82814" />
		<rect class="ketchup__drip" data-name="ketchup__drip" x="322.7" y="68.77" width="10.23" height="26.43" rx="5.12" fill="#b82814" />
		<rect class="ketchup__drip" data-name="ketchup__drip" x="345.8" y="71.04" width="10.23" height="15.05" rx="5.12" fill="#b82814" />
	</g>
	<g class="lettuce">
		<path class="lettuce__pieces" d="M463.27,147h-359a7.79,7.79,0,0,0,0,15.56h45.62a7.4,7.4,0,0,0,6.73,4.5h79.82a7.42,7.42,0,0,0,6.73-4.5h15.74a7.4,7.4,0,0,0,6.73,4.5h48.57a7.42,7.42,0,0,0,6.74-4.5h15.73a7.42,7.42,0,0,0,6.73,4.5h92.71a7.4,7.4,0,0,0,6.73-4.5h20.45a7.79,7.79,0,0,0,0-15.56Z" transform="translate(-96.81 -79.97)" fill="#3baa37" />
	</g>
	<g class="bun">
		<path class="bun-top" d="M454.29,147c-3.46-37.24-77.53-67-168.42-67s-165,29.75-168.42,67Z" transform="translate(-96.81 -79.97)" fill="#fdd292" />
		<path class="bun-bottom" d="M20.65,123.31H357.48a0,0,0,0,1,0,0v29.86a10.71,10.71,0,0,1-10.71,10.71H31.36a10.71,10.71,0,0,1-10.71-10.71V123.31a0,0,0,0,1,0,0Z" fill="#fdd292" />
	</g>
	<g class="seed">
		<ellipse class="seed" data-name="seed" cx="73.7" cy="37.83" rx="6.08" ry="4.34" fill="#ede7cb" />
		<ellipse class="seed" data-name="seed" cx="102.9" cy="52.85" rx="6.08" ry="4.34" fill="#ede7cb" />
		<ellipse class="seed" data-name="seed" cx="123.86" cy="27.74" rx="5.79" ry="4.34" fill="#ede7cb" />
		<ellipse class="seed" data-name="seed" cx="152.44" cy="44.18" rx="5.79" ry="4.34" fill="#ede7cb" />
		<ellipse class="seed" data-name="seed" cx="187.1" cy="20.49" rx="5.79" ry="4.34" fill="#ede7cb" />
		<ellipse class="seed" data-name="seed" cx="220.59" cy="48.52" rx="5.79" ry="4.34" fill="#ede7cb" />
		<ellipse class="seed" data-name="seed" cx="240.48" cy="27.74" rx="5.79" ry="4.34" fill="#ede7cb" />
		<ellipse class="seed" data-name="seed" cx="173.29" cy="39.85" rx="5.79" ry="4.34" fill="#ede7cb" />
		<ellipse class="seed" data-name="seed" cx="259.01" cy="33.49" rx="5.79" ry="4.34" fill="#ede7cb" />
		<ellipse class="seed" data-name="seed" cx="54.14" cy="56.64" rx="6.08" ry="4.34" fill="#ede7cb" />
		<ellipse class="seed" data-name="seed" cx="192.6" cy="52.85" rx="5.79" ry="4.34" fill="#ede7cb" />
		<ellipse class="seed" data-name="seed" cx="273.3" cy="46.5" rx="5.79" ry="4.34" fill="#ede7cb" />
		<ellipse class="seed" data-name="seed" cx="327.14" cy="52.85" rx="5.79" ry="4.34" fill="#ede7cb" />
		<ellipse class="seed" data-name="seed" cx="298.02" cy="33.49" rx="5.79" ry="4.34" fill="#ede7cb" />
	</g>
</svg>